<svg width="78" height="73" viewBox="0 0 78 73" fill="none" xmlns="http://www.w3.org/2000/svg">
<g clip-path="url(#clip0_2_88)">
<path d="M61.93 14.47H67.82C70.3504 14.4726 72.777 15.4762 74.57 17.2617C76.363 19.0472 77.3768 21.4696 77.39 24V32H6.5V24C6.50265 21.4627 7.51176 19.0301 9.30591 17.2359C11.1001 15.4418 13.5327 14.4326 16.07 14.43H61.93V14.47Z" fill="#F4C80F"/>
<path d="M42 45.94C42 45.94 35.68 39.94 31.3 45.46C26.92 50.98 34.1 60 35.91 61.68C37.72 63.36 41.62 66.86 42.68 66.86C43.74 66.86 54.39 58.28 54 50.32C53.61 42.36 46.83 40.55 42 45.94Z" fill="#F4C80F"/>
<path d="M29.88 57.77C35.75 63.36 37.2 63.36 37.68 63.36C39.54 63.36 44.03 58.64 44.07 58.59C46.58 55.94 50.75 50.67 50.45 45.24C50.21 40.98 48.25 37.8 45.2 36.74C42.49 35.74 39.47 36.61 36.91 38.92C35.0241 37.4249 32.6867 36.6141 30.28 36.62C29.263 36.7012 28.276 37.0037 27.3881 37.5063C26.5002 38.009 25.733 38.6997 25.14 39.53C20.06 46 27.71 55.71 29.88 57.77ZM27.49 41.38C27.8325 40.8857 28.278 40.4715 28.7959 40.1659C29.3138 39.8603 29.8918 39.6707 30.49 39.61H30.79C33.37 39.6 35.92 42 36 42L37.1 43.1L38.1 41.94C40.02 39.8 42.29 38.94 44.18 39.57C46.07 40.2 47.26 42.36 47.43 45.4C47.78 51.73 39.78 58.99 37.59 60.26C35.5802 58.8913 33.7081 57.3307 32 55.6C30.61 54.28 23.89 46.04 27.54 41.38" fill="#546E4D"/>
<path d="M62.82 8H57.94V3.27C57.9374 2.40355 57.592 1.57335 56.9793 0.960675C56.3666 0.348001 55.5364 0.0026376 54.67 0L51.12 0C50.2536 0.0026376 49.4233 0.348001 48.8107 0.960675C48.198 1.57335 47.8526 2.40355 47.85 3.27V8H26V3.27C25.9975 2.41042 25.6576 1.58617 25.0536 0.974625C24.4495 0.363076 23.6295 0.0130998 22.77 0L19.22 0C18.3623 0.0156895 17.5448 0.366806 16.9429 0.978078C16.341 1.58935 16.0025 2.41212 16 3.27V8H11.07C8.13913 8.00527 5.32952 9.17052 3.25521 11.2411C1.18089 13.3116 0.0105665 16.1191 0 19.05L0 61.93C0.00528708 64.8643 1.17329 67.6769 3.24817 69.7518C5.32305 71.8267 8.13568 72.9947 11.07 73H62.82C65.7543 72.9947 68.5669 71.8267 70.6418 69.7518C72.7167 67.6769 73.8847 64.8643 73.89 61.93V19.05C73.8794 16.1191 72.7091 13.3116 70.6348 11.2411C68.5605 9.17052 65.7509 8.00527 62.82 8ZM50.82 3.3C50.8152 3.25944 50.8196 3.21832 50.833 3.17972C50.8464 3.14113 50.8683 3.10607 50.8972 3.07719C50.9261 3.04831 50.9611 3.02636 50.9997 3.01299C51.0383 2.99962 51.0794 2.99518 51.12 3H54.67C54.7416 3 54.8103 3.02845 54.8609 3.07908C54.9116 3.12972 54.94 3.19839 54.94 3.27V15.68C54.94 15.7516 54.9116 15.8203 54.8609 15.8709C54.8103 15.9216 54.7416 15.95 54.67 15.95H51.12C51.0484 15.95 50.9797 15.9216 50.9291 15.8709C50.8784 15.8203 50.85 15.7516 50.85 15.68L50.82 3.3ZM19 3.27C18.9989 3.20627 19.0204 3.1442 19.0606 3.09479C19.1009 3.04537 19.1574 3.01179 19.22 3H22.77C22.8416 3 22.9103 3.02845 22.9609 3.07908C23.0116 3.12972 23.04 3.19839 23.04 3.27V15.68C23.04 15.7516 23.0116 15.8203 22.9609 15.8709C22.9103 15.9216 22.8416 15.95 22.77 15.95H19.22C19.1484 15.95 19.0797 15.9216 19.0291 15.8709C18.9784 15.8203 18.95 15.7516 18.95 15.68L19 3.27ZM70.89 61.93C70.8874 64.0695 70.0363 66.1206 68.5234 67.6334C67.0106 69.1463 64.9595 69.9974 62.82 70H11.07C8.93052 69.9974 6.87942 69.1463 5.36657 67.6334C3.85373 66.1206 3.00265 64.0695 3 61.93V28.7H70.89V61.93ZM70.89 25.7H3V19.05C3.00793 16.914 3.86134 14.868 5.37361 13.3595C6.88589 11.851 8.93397 11.0026 11.07 11H16V15.71C15.9972 16.5713 16.3334 17.3992 16.9359 18.0148C17.5383 18.6304 18.3588 18.9842 19.22 19H22.77C23.6382 18.9868 24.4657 18.63 25.0712 18.0076C25.6767 17.3853 26.0107 16.5482 26 15.68V11H47.85V15.71C47.8487 16.1407 47.9322 16.5675 48.0958 16.966C48.2595 17.3644 48.5 17.7267 48.8036 18.0322C49.1073 18.3377 49.4681 18.5805 49.8656 18.7465C50.263 18.9125 50.6893 18.9987 51.12 19H54.67C55.5364 18.9974 56.3666 18.652 56.9793 18.0393C57.592 17.4267 57.9374 16.5964 57.94 15.73V11H62.82C64.9612 11.0027 67.0138 11.8551 68.527 13.3701C70.0401 14.8851 70.89 16.9388 70.89 19.08V25.7Z" fill="#546E4D"/>
</g>
<defs>
<clipPath id="clip0_2_88">
<rect width="77.39" height="73" fill="white"/>
</clipPath>
</defs>
</svg>
