<svg width="50" height="10" viewBox="0 0 50 10" fill="none" xmlns="http://www.w3.org/2000/svg">
<g clip-path="url(#clip0_2_102)">
<path d="M4.00003 2.83998C3.4088 2.82882 2.82424 2.96637 2.30002 3.23998C1.79949 3.48872 1.35664 3.8396 1.00003 4.26998C0.667128 4.68943 0.416097 5.16774 0.260025 5.67998C0.0919006 6.18653 0.00417037 6.71628 2.51529e-05 7.24998C-0.0365723 7.98245 0.214641 8.70021 0.700025 9.24998C0.997362 9.51973 1.34696 9.7255 1.72713 9.85452C2.1073 9.98353 2.50992 10.033 2.91003 9.99998C3.24487 9.99801 3.57912 9.97127 3.91003 9.91998C4.21619 9.86997 4.51508 9.78265 4.80003 9.65998C4.80802 9.364 4.77777 9.06822 4.71003 8.77998C4.65818 8.57932 4.57733 8.3873 4.47003 8.20998C4.24483 8.3095 4.01036 8.38654 3.77003 8.43998C3.57826 8.4715 3.38435 8.48821 3.19003 8.48998C2.8444 8.50319 2.50723 8.38123 2.25003 8.14998C2.11673 8.00758 2.0149 7.83871 1.95115 7.65436C1.8874 7.47001 1.86317 7.27431 1.88003 7.07998C1.87814 6.74232 1.92187 6.40594 2.01003 6.07998C2.08308 5.7694 2.21183 5.47464 2.39003 5.20998C2.55967 4.96525 2.77744 4.75769 3.03003 4.59998C3.32254 4.42499 3.65936 4.33818 4.00003 4.34998C4.21215 4.34627 4.42388 4.3698 4.63003 4.41998C4.82822 4.46302 5.02229 4.52325 5.21003 4.59998C5.35831 4.37224 5.46969 4.12249 5.54003 3.85998C5.6086 3.61913 5.64558 3.37038 5.65003 3.11998C5.39263 3.01852 5.12407 2.94803 4.85003 2.90998C4.56862 2.86732 4.28462 2.84394 4.00003 2.83998Z" fill="white"/>
<path d="M9.00001 8.31997C8.91299 8.35156 8.82223 8.37173 8.73001 8.37997H8.54001H8.30001C8.22275 8.37102 8.14978 8.33974 8.09001 8.28997C8.04516 8.23862 8.01418 8.17665 8.00001 8.10997C7.95536 8.00591 7.93485 7.89309 7.94001 7.77997C7.93276 7.65674 7.93276 7.53319 7.94001 7.40997L9.00001 2.08997C9.06001 1.80997 9.10001 1.54997 9.14001 1.30997C9.15631 1.09703 9.15965 0.883305 9.15001 0.669966C9.15652 0.500467 9.13282 0.331162 9.08001 0.169966C8.80255 0.121308 8.52168 0.0945586 8.24001 0.0899658H7.73001L7.22001 0.169966C7.22001 0.249966 7.22001 0.319966 7.22001 0.389966V0.629966C7.21667 0.924198 7.19664 1.218 7.16001 1.50997C7.16001 1.85997 7.06001 2.26997 6.96001 2.73997L6.11001 7.25997C6.11001 7.40997 6.06001 7.55997 6.04001 7.68997C6.03085 7.8198 6.03085 7.95013 6.04001 8.07997C6.01943 8.33712 6.0553 8.59566 6.14513 8.83749C6.23495 9.07933 6.37655 9.2986 6.56001 9.47997C6.96165 9.79172 7.46235 9.94797 7.97001 9.91997C8.2077 9.92443 8.4453 9.9077 8.68001 9.86997C8.85388 9.8487 9.0249 9.80846 9.19001 9.74997C9.19446 9.68337 9.19446 9.61656 9.19001 9.54997C9.19527 9.4834 9.19527 9.41653 9.19001 9.34997C9.20481 9.17027 9.20481 8.98966 9.19001 8.80997C9.11001 8.62997 9.07001 8.46996 9.00001 8.31997Z" fill="white"/>
<path d="M10.54 3.62C10.4904 3.82964 10.4669 4.0446 10.47 4.26C10.4646 4.28975 10.4646 4.32025 10.47 4.35V4.43H11.31L10.31 9.84C10.6042 9.88924 10.9017 9.91599 11.2 9.92C11.5182 9.91695 11.8358 9.89021 12.15 9.84L13.41 3H10.74C10.6523 3.19927 10.5853 3.40703 10.54 3.62Z" fill="white"/>
<path d="M13.92 0.09C13.7623 0.0487317 13.6019 0.0186568 13.44 0L13 0H12.52C12.352 0.0127813 12.185 0.0361612 12.02 0.07C11.9237 0.357837 11.8468 0.651836 11.79 0.95C11.7392 1.24041 11.7191 1.53537 11.73 1.83C11.8896 1.84689 12.0505 1.84689 12.21 1.83H12.67H13.14C13.3063 1.84529 13.4737 1.84529 13.64 1.83C13.7255 1.55822 13.7923 1.2809 13.84 1C13.8991 0.7004 13.926 0.395321 13.92 0.09Z" fill="white"/>
<path d="M17.7201 2.83998C17.1291 2.83135 16.5452 2.96875 16.0201 3.23998C15.5459 3.4899 15.1248 3.82952 14.7801 4.23998C14.4336 4.66785 14.1692 5.15604 14.0001 5.67998C13.8319 6.18653 13.7442 6.71628 13.7401 7.24998C13.7062 7.98383 13.961 8.70176 14.4501 9.24998C14.7468 9.5164 15.0954 9.71874 15.4739 9.84435C15.8525 9.96995 16.2529 10.0161 16.6501 9.97998C16.9849 9.97801 17.3191 9.95127 17.6501 9.89998C17.9597 9.85128 18.2621 9.76393 18.5501 9.63998C18.558 9.344 18.5278 9.04822 18.4601 8.75998C18.4039 8.56082 18.3232 8.36936 18.2201 8.18998C17.9915 8.28976 17.7537 8.3668 17.5101 8.41998C17.3216 8.4515 17.1311 8.46822 16.9401 8.46998C16.5941 8.48535 16.2561 8.36311 16.0001 8.12998C15.8668 7.98758 15.7649 7.81871 15.7012 7.63436C15.6374 7.45001 15.6132 7.25431 15.6301 7.05998C15.6297 6.72304 15.67 6.38728 15.7501 6.05998C15.8275 5.7509 15.956 5.45688 16.13 5.18998C16.3032 4.94479 16.5244 4.73728 16.7801 4.57998C17.0533 4.42222 17.3646 4.34265 17.6801 4.34998C17.8889 4.34624 18.0973 4.36977 18.3001 4.41998C18.5394 4.45352 18.7742 4.5139 19.0001 4.59998C19.1483 4.37224 19.2597 4.12249 19.3301 3.85998C19.3968 3.61841 19.437 3.37028 19.4501 3.11998C19.1888 3.01966 18.9171 2.94921 18.6401 2.90998C18.3356 2.86357 18.028 2.84017 17.7201 2.83998Z" fill="white"/>
<path d="M25.34 2.92004H24.83L24.31 3.00004C24.2859 3.19593 24.2355 3.38767 24.16 3.57004C24.0348 3.88102 23.8628 4.17103 23.65 4.43004L22.26 6.26004L23.52 9.84004C23.6816 9.87053 23.8456 9.88726 24.01 9.89004H24.48H24.95L25.46 9.84004L24.18 6.27004L25.51 4.60004C25.7247 4.31226 25.9217 4.01171 26.1 3.70004C26.2314 3.48677 26.3166 3.2483 26.35 3.00004L25.85 2.94004L25.34 2.92004Z" fill="white"/>
<path d="M22.88 0.669966C22.8865 0.500467 22.8628 0.331162 22.81 0.169966C22.5425 0.122457 22.2717 0.095711 22 0.0899658H21.5L21 0.169966C21 0.249966 21 0.319966 21 0.389966C21 0.459966 21 0.539966 21 0.629966C20.9753 1.33849 20.8951 2.04399 20.76 2.73997L19.51 9.83997C19.8073 9.89141 20.1083 9.91816 20.41 9.91997C20.7449 9.92018 21.0794 9.89343 21.41 9.83997L22.77 2.08997C22.8517 1.6212 22.8885 1.14572 22.88 0.669966Z" fill="white"/>
<path d="M34.82 2.99996V3.09996C34.8255 3.13642 34.8255 3.1735 34.82 3.20996C34.813 3.4352 34.7862 3.65939 34.74 3.87996C34.6723 4.19299 34.5717 4.498 34.44 4.78996L33.15 7.78996L32.79 2.99996C32.4594 2.94597 32.125 2.91921 31.79 2.91996C31.4882 2.91908 31.1869 2.94585 30.89 2.99996L29 7.74996L28.77 2.99996L28.32 2.93996H27.86C27.4957 2.93401 27.1315 2.95406 26.77 2.99996L27.48 9.83996C27.6316 9.8718 27.7854 9.89186 27.94 9.89996H28.41H28.96L29.49 9.84996L31.35 5.49996L31.73 9.84996C32.0339 9.90228 32.3417 9.92904 32.65 9.92996H33.21C33.3912 9.92222 33.5716 9.90217 33.75 9.86996L36.21 4.99996C36.3975 4.64725 36.5548 4.27926 36.68 3.89996C36.7759 3.61633 36.8266 3.31935 36.83 3.01996V2.99996C36.4993 2.947 36.1649 2.92025 35.83 2.91996C35.4917 2.91747 35.1538 2.94423 34.82 2.99996Z" fill="white"/>
<path d="M42.09 3.26997C41.8923 3.13985 41.6717 3.04825 41.44 2.99997C41.1731 2.92561 40.8971 2.88859 40.62 2.88997C40.0616 2.8717 39.5068 2.98473 39 3.21997C38.519 3.46378 38.0935 3.80421 37.75 4.21997C37.4229 4.63736 37.1693 5.10742 37 5.60997C36.8135 6.11927 36.7187 6.65759 36.72 7.19997C36.7156 7.59065 36.7764 7.97933 36.9 8.34997C37.0091 8.68655 37.1978 8.99185 37.45 9.23997C37.7373 9.49898 38.079 9.69033 38.45 9.79997C38.896 9.94163 39.3622 10.0092 39.83 9.99997H40.4L41.03 9.89997C41.2389 9.86392 41.4459 9.81719 41.65 9.75997C41.8277 9.70923 42.0015 9.64573 42.17 9.56997C42.1736 9.30163 42.1501 9.03362 42.1 8.76997C42.0573 8.53609 41.9577 8.3163 41.81 8.12997C41.533 8.24438 41.2491 8.34124 40.96 8.41997C40.6574 8.50431 40.3442 8.54472 40.03 8.53997C39.6685 8.561 39.3121 8.44695 39.03 8.21997C38.7782 7.96965 38.6284 7.63458 38.61 7.27997L39.49 7.12997C39.9077 7.07445 40.3194 6.98072 40.72 6.84997C41.0913 6.73221 41.4446 6.56396 41.77 6.34997C42.0687 6.16153 42.3216 5.9087 42.51 5.60997C42.6979 5.31067 42.7952 4.96335 42.79 4.60997C42.7974 4.35398 42.7425 4.10003 42.63 3.86997C42.5028 3.62811 42.3172 3.42186 42.09 3.26997ZM40.84 5.10997C40.7783 5.22902 40.6933 5.33445 40.59 5.41997C40.434 5.53415 40.2622 5.6251 40.08 5.68997C39.8167 5.79446 39.5411 5.86503 39.26 5.89997L38.57 5.99997C38.6261 5.77199 38.7066 5.55072 38.81 5.33997C38.9015 5.13339 39.0228 4.94134 39.17 4.76997C39.3078 4.60148 39.4778 4.4621 39.67 4.35997C39.8609 4.25886 40.074 4.20728 40.29 4.20997C40.3719 4.205 40.454 4.21661 40.5313 4.2441C40.6086 4.27159 40.6796 4.3144 40.74 4.36997C40.7945 4.42286 40.837 4.48684 40.8646 4.55758C40.8922 4.62832 40.9043 4.70416 40.9 4.77997C40.8987 4.89257 40.8784 5.00413 40.84 5.10997Z" fill="white"/>
<path d="M49.45 3.48004C49.2785 3.26362 49.0568 3.09223 48.8042 2.98072C48.5515 2.86921 48.2755 2.82092 48 2.84004C47.7398 2.83419 47.4802 2.86791 47.23 2.94004C47.0247 2.99213 46.8289 3.07652 46.65 3.19004C46.4889 3.28732 46.341 3.40496 46.21 3.54004C46.0852 3.66245 45.9683 3.79271 45.86 3.93004L46.19 2.09004C46.2936 1.62298 46.3572 1.14792 46.38 0.670044C46.3814 0.500841 46.3578 0.33236 46.31 0.170044C45.7742 0.572343 45.1441 0.830561 44.48 0.920044C44.4389 1.53067 44.3621 2.13838 44.25 2.74004L43 9.60004C43.3225 9.73077 43.6576 9.82795 44 9.89004C44.372 9.96476 44.7506 10.0016 45.13 10C45.9145 10.0238 46.6951 9.88067 47.42 9.58004C47.9914 9.32708 48.5 8.95154 48.91 8.48004C49.2749 8.0465 49.5472 7.54282 49.71 7.00004C49.8871 6.45693 49.9848 5.89109 50 5.32004C50.0278 4.66244 49.8342 4.01452 49.45 3.48004ZM47.8 6.56004C47.7164 6.886 47.5814 7.19655 47.4 7.48004C47.2228 7.75734 46.9873 7.99278 46.71 8.17004C46.4111 8.35775 46.0628 8.45177 45.71 8.44004H45.37C45.2775 8.43407 45.1864 8.41384 45.1 8.38004L45.39 6.69004C45.4455 6.08382 45.6555 5.50196 46 5.00004C46.1189 4.84594 46.27 4.71959 46.4427 4.62979C46.6154 4.53999 46.8056 4.48889 47 4.48004C47.1294 4.46987 47.259 4.49637 47.374 4.55651C47.4889 4.61665 47.5846 4.70799 47.65 4.82004C47.7829 5.06527 47.8484 5.34128 47.84 5.62004C47.8622 5.93388 47.8488 6.24922 47.8 6.56004Z" fill="white"/>
</g>
<defs>
<clipPath id="clip0_2_102">
<rect width="49.95" height="10" fill="white"/>
</clipPath>
</defs>
</svg>
