<svg width="31" height="126" viewBox="0 0 31 126" fill="none" xmlns="http://www.w3.org/2000/svg">
<path d="M4.5 2.67993C4.5 1.57536 3.60457 0.679932 2.5 0.679932C1.39543 0.679932 0.5 1.57536 0.5 2.67993H4.5ZM0.5 2.67993C0.5 4.4043 0.655529 6.10775 0.93988 7.79334L4.88415 7.12796C4.63365 5.64303 4.5 4.16268 4.5 2.67993H0.5ZM3.84706 17.4098C5.08082 20.3525 6.57667 23.2828 8.18798 26.2154L11.6937 24.2892C10.1163 21.4183 8.69369 18.6245 7.53595 15.8632L3.84706 17.4098ZM12.9775 34.6012C14.5563 37.3336 16.1319 40.0966 17.6192 42.9296L21.1608 41.0702C19.6337 38.1615 18.0241 35.3399 16.4409 32.6L12.9775 34.6012ZM21.6332 51.4465C22.8055 54.3116 23.807 57.2511 24.559 60.2875L28.4417 59.326C27.6354 56.0701 26.568 52.9446 25.3353 49.9317L21.6332 51.4465ZM25.9703 69.4041C26.1477 72.3624 26.055 75.4276 25.6278 78.6167L29.5924 79.1477C30.0546 75.697 30.1556 72.3737 29.9631 69.1646L25.9703 69.4041ZM23.5827 87.6435C22.7001 90.4227 21.5574 93.3002 20.1173 96.2841L23.7198 98.0227C25.2375 94.8778 26.4519 91.8242 27.3951 88.8541L23.5827 87.6435ZM15.5754 104.453C13.9909 106.977 12.1981 109.574 10.1784 112.245L13.3693 114.657C15.4538 111.9 17.3132 109.208 18.9634 106.579L15.5754 104.453ZM4.23825 119.556C3.21168 120.738 2.1421 121.935 1.02814 123.146L3.97186 125.854C5.11115 124.616 6.20652 123.39 7.2592 122.177L4.23825 119.556Z" fill="#F0EAD8"/>
</svg>
