<svg width="28" height="28" viewBox="0 0 28 28" fill="none" xmlns="http://www.w3.org/2000/svg">
<g clip-path="url(#clip0_2_172)">
<path d="M20 0H8C5.87827 0 3.84344 0.842855 2.34315 2.34315C0.842855 3.84344 0 5.87827 0 8L0 20C0 22.1217 0.842855 24.1566 2.34315 25.6569C3.84344 27.1571 5.87827 28 8 28H20C22.1217 28 24.1566 27.1571 25.6569 25.6569C27.1571 24.1566 28 22.1217 28 20V8C28 5.87827 27.1571 3.84344 25.6569 2.34315C24.1566 0.842855 22.1217 0 20 0V0ZM18.25 8.64H17C16.7867 8.61235 16.57 8.63281 16.3657 8.69988C16.1614 8.76694 15.9747 8.87892 15.8193 9.02758C15.6639 9.17624 15.5438 9.35781 15.4678 9.55896C15.3918 9.76011 15.3618 9.97573 15.38 10.19V12.06H18.14L17.69 14.93H15.38V21.93C14.3495 22.0899 13.3005 22.0899 12.27 21.93V14.93H9.75V12.06H12.27V9.87C12.2163 9.36064 12.2747 8.84569 12.4411 8.36129C12.6075 7.8769 12.878 7.4348 13.2334 7.06602C13.5888 6.69724 14.0207 6.41071 14.4986 6.22656C14.9766 6.0424 15.489 5.96507 16 6C16.7436 6.01044 17.4855 6.07394 18.22 6.19L18.25 8.64Z" fill="white"/>
</g>
<defs>
<clipPath id="clip0_2_172">
<rect width="28" height="28" fill="white"/>
</clipPath>
</defs>
</svg>
