<svg width="28" height="28" viewBox="0 0 28 28" fill="none" xmlns="http://www.w3.org/2000/svg">
<g clip-path="url(#clip0_2_178)">
<path d="M14 9C13.0111 9 12.0444 9.29325 11.2222 9.84265C10.3999 10.3921 9.75904 11.173 9.3806 12.0866C9.00217 13.0002 8.90315 14.0055 9.09608 14.9755C9.289 15.9454 9.76521 16.8363 10.4645 17.5355C11.1637 18.2348 12.0546 18.711 13.0246 18.9039C13.9945 19.0969 14.9998 18.9978 15.9134 18.6194C16.8271 18.241 17.6079 17.6001 18.1574 16.7779C18.7068 15.9556 19 14.9889 19 14C19 12.6739 18.4732 11.4021 17.5355 10.4645C16.5979 9.52678 15.3261 9 14 9Z" fill="white"/>
<path d="M20 0H8C5.87827 0 3.84344 0.842855 2.34315 2.34315C0.842855 3.84344 0 5.87827 0 8L0 20C0 22.1217 0.842855 24.1566 2.34315 25.6569C3.84344 27.1571 5.87827 28 8 28H20C22.1217 28 24.1566 27.1571 25.6569 25.6569C27.1571 24.1566 28 22.1217 28 20V8C28 5.87827 27.1571 3.84344 25.6569 2.34315C24.1566 0.842855 22.1217 0 20 0V0ZM14 21.7C12.4771 21.7 10.9884 21.2484 9.72211 20.4023C8.45585 19.5562 7.46892 18.3537 6.88613 16.9467C6.30333 15.5397 6.15085 13.9915 6.44795 12.4978C6.74506 11.0042 7.47841 9.63214 8.55528 8.55528C9.63214 7.47841 11.0042 6.74506 12.4978 6.44795C13.9915 6.15085 15.5397 6.30333 16.9467 6.88613C18.3537 7.46892 19.5562 8.45585 20.4023 9.72211C21.2484 10.9884 21.7 12.4771 21.7 14C21.7 16.0422 20.8888 18.0007 19.4447 19.4447C18.0007 20.8888 16.0422 21.7 14 21.7ZM22 7.79C21.644 7.78802 21.2966 7.68051 21.0017 7.48108C20.7068 7.28165 20.4776 6.99925 20.3432 6.6696C20.2088 6.33994 20.1752 5.97783 20.2466 5.62906C20.318 5.28028 20.4912 4.96052 20.7443 4.71018C20.9975 4.45985 21.3191 4.29021 21.6687 4.22269C22.0182 4.15518 22.3799 4.19283 22.7081 4.33089C23.0362 4.46895 23.3161 4.70122 23.5122 4.99831C23.7083 5.29541 23.812 5.644 23.81 6C23.81 6.23676 23.7631 6.47117 23.6719 6.68965C23.5807 6.90814 23.447 7.10636 23.2787 7.27284C23.1103 7.43933 22.9106 7.57076 22.6911 7.65953C22.4717 7.7483 22.2367 7.79265 22 7.79Z" fill="white"/>
</g>
<defs>
<clipPath id="clip0_2_178">
<rect width="28" height="28" fill="white"/>
</clipPath>
</defs>
</svg>
