<svg width="490" height="113" viewBox="0 0 490 113" fill="none" xmlns="http://www.w3.org/2000/svg">
<g clip-path="url(#clip0_2_286)">
<path d="M199.87 41L204.44 43.12C202.52 48.28 196.79 52.12 191.05 50.9C189.413 50.5578 187.88 49.8368 186.572 48.7948C185.264 47.7528 184.219 46.4189 183.52 44.9C180.16 37.62 181.64 26.9 190.13 23.9C198.47 20.69 207.46 29.73 202.32 37.55C201.098 39.1157 199.533 40.3804 197.746 41.2472C195.958 42.1139 193.996 42.5596 192.01 42.55C192.113 42.7396 192.226 42.9232 192.35 43.1C195.01 46.1 198.02 43.73 199.87 41.1V41ZM191.16 36.17C193.37 36.17 196.26 35.92 197.03 34.39C197.173 34.1333 197.262 33.85 197.291 33.5576C197.32 33.2652 197.289 32.9699 197.2 32.69C196.974 32.2868 196.64 31.955 196.235 31.7323C195.831 31.5095 195.371 31.4048 194.91 31.43C192.67 31.73 191.52 33.79 191.16 36.17Z" fill="#F6C63B"/>
<path d="M228.87 44.3C228.52 46.63 227.87 49.52 225.78 50.53C225.121 50.8226 224.404 50.962 223.684 50.9377C222.963 50.9135 222.258 50.7262 221.62 50.39C217.88 48.39 215.98 40.39 214.41 37.66C214.41 37.56 214.24 37.37 214.13 37.38C213.72 37.46 214.3 48.02 214.23 50.84L205.91 50.5C206.17 43.71 204.03 30.27 209.37 25.36C210.39 24.454 211.706 23.9535 213.07 23.9535C214.434 23.9535 215.75 24.454 216.77 25.36C219.77 27.9 222.45 36.1 222.72 36.9C223.33 32.08 223.44 27.17 223.62 22.9L228.95 22.39C229.43 27.54 230.01 36.65 228.87 44.32" fill="#F6C63B"/>
<path d="M239.09 39.41C239.28 41.69 240.28 44.15 242.75 44.65C243.25 44.7798 243.777 44.7535 244.262 44.5748C244.746 44.396 245.164 44.0733 245.46 43.65L250.17 45.21C248.78 51.27 241.78 52.71 236.95 49.74C231.44 46.49 230.35 39.34 231.47 33.49C232.47 28.3 236.27 23.28 242.1 23.3C243.898 23.2868 245.675 23.694 247.288 24.4892C248.901 25.2844 250.305 26.4455 251.39 27.88L244.91 33.1C244.596 32.6394 244.169 32.267 243.67 32.0184C243.171 31.7698 242.617 31.6533 242.06 31.68C239.06 31.63 238.93 37.56 239.06 39.43" fill="#F6C63B"/>
<path d="M263.43 51.34C258.51 51.97 254.81 49.74 252.67 45.54C250.96 42.21 250.57 35.98 251.5 32.38C252.047 29.6906 253.506 27.2728 255.631 25.536C257.756 23.7993 260.416 22.8504 263.16 22.85C263.16 22.85 263.16 23.15 263.16 23.63C268.25 23.37 271.89 27.55 272.77 32.56C274.09 39.68 271.77 50.02 263.38 51.34H263.43ZM265.7 32.34C265.563 31.5727 265.181 30.8707 264.61 30.34C264.279 30.0619 263.894 29.8544 263.48 29.73C263.48 30.26 263.53 30.79 263.56 31.32C262.6 31.5047 261.712 31.9591 261 32.63C259.987 33.685 259.414 35.0872 259.4 36.55C259.4 36.83 258.98 41.39 261.53 42.63C262.103 42.9246 262.762 43.0061 263.39 42.86C266.53 42 266.28 34.5 265.8 32.38" fill="#F6C63B"/>
<path d="M297.83 44.3C297.48 46.63 296.88 49.52 294.74 50.53C294.081 50.8226 293.364 50.962 292.644 50.9377C291.923 50.9135 291.218 50.7262 290.58 50.39C286.84 48.39 284.94 40.39 283.37 37.66C283.32 37.56 283.2 37.37 283.09 37.38C282.68 37.46 283.26 48.02 283.19 50.84L274.88 50.5C275.13 43.71 273 30.27 278.33 25.36C279.35 24.454 280.666 23.9535 282.03 23.9535C283.394 23.9535 284.71 24.454 285.73 25.36C288.73 27.9 291.41 36.1 291.68 36.9C292.29 32.08 292.4 27.17 292.59 22.9L297.91 22.39C298.39 27.54 298.98 36.65 297.83 44.32" fill="#F6C63B"/>
<path d="M320.3 25.45L320.4 30.45C318.324 30.8846 316.218 31.1654 314.1 31.29C313.72 34.99 313.58 38.63 313.56 42.08C313.56 44.41 313.7 48.3 313.28 50.08L308.35 51.08C305.68 46.08 305.05 38.29 305.65 31.76C303.803 31.8533 301.82 31.9367 299.7 32.01L299.53 23.69C306.26 23.03 317.22 23.61 320.3 25.47" fill="#F6C63B"/>
<path d="M335.46 43.06C335.73 43.6281 336.157 44.107 336.69 44.44C338.04 45.27 340.02 44.98 341.69 43.69L343.4 46.91C342.602 48.397 341.353 49.5934 339.834 50.328C338.314 51.0626 336.601 51.2979 334.94 51C332.372 50.5031 330.076 49.0795 328.49 47C328.271 48.264 327.898 49.4964 327.38 50.67L322.38 50.6C322 48.434 321.81 46.2391 321.81 44.04C321.69 39.04 321.57 32.33 321.58 23.98C331.34 21.78 339.75 24.27 342.07 28.93C343.369 31.4299 343.658 34.3327 342.88 37.04C341.41 41.5 335.88 42.94 335.42 43.04L335.46 43.06ZM334.79 32.75C333.57 31.55 330.12 31.67 329.94 31.67C329.89 33.46 329.8 35.28 329.67 37.07C332.53 37.23 334.75 36.46 335.22 35.3C335.438 34.8867 335.514 34.4131 335.436 33.9523C335.359 33.4915 335.131 33.069 334.79 32.75Z" fill="#F6C63B"/>
<path d="M356.94 51.34C352.02 51.97 348.32 49.74 346.18 45.54C344.48 42.21 344.08 35.98 345.02 32.38C346.42 26.65 350.62 23.13 356.68 22.85C356.68 22.85 356.68 23.15 356.68 23.63C361.78 23.37 365.41 27.55 366.3 32.56C367.61 39.68 365.3 50.02 356.9 51.34H356.94ZM359.22 32.34C359.088 31.5712 358.704 30.8679 358.13 30.34C357.799 30.0619 357.414 29.8544 357 29.73L357.09 31.32C356.093 31.4801 355.165 31.9285 354.42 32.61C353.411 33.6678 352.839 35.0682 352.82 36.53C352.82 36.81 352.41 41.37 354.95 42.61C355.523 42.9038 356.182 42.9852 356.81 42.84C359.95 41.98 359.71 34.48 359.22 32.36" fill="#F6C63B"/>
<path d="M387.32 44.69C386.1 49.45 380.91 51.69 376.48 50.99C371.18 50.34 367.19 45.47 370.37 40.47L374.87 41.81C374.716 42.2007 374.706 42.6335 374.841 43.031C374.977 43.4285 375.249 43.7649 375.61 43.98C376.631 44.4285 377.782 44.4819 378.84 44.13C380.66 43.54 379.84 41.83 378.64 41.24C376.55 40.24 374.21 39.93 372.15 38.82C371.123 38.3378 370.21 37.6426 369.472 36.7805C368.734 35.9185 368.188 34.9093 367.87 33.82C366.53 28.58 371 23.78 376 23.1C381.26 22.38 385.59 24.1 389.68 26.9L385 34.26C385.07 34.15 383.93 33.35 383.82 33.26C379.47 30.4 376.45 30.44 376.48 31.58C376.48 32.94 380.39 33.29 383 34.58C384.841 35.4361 386.304 36.939 387.11 38.803C387.915 40.6671 388.008 42.7622 387.37 44.69" fill="#F6C63B"/>
<path d="M420.3 29.74C424.63 39.15 417.01 47.41 407.79 46.06C407.466 47.6679 407.022 49.249 406.46 50.79L401.51 50.65C400.45 41.58 400.95 35.88 399.96 24.27L408.26 23.91C410.623 23.4328 413.077 23.7448 415.245 24.7981C417.413 25.8515 419.175 27.5877 420.26 29.74H420.3ZM411.88 32.41C411.381 32.179 410.834 32.0702 410.284 32.0928C409.735 32.1154 409.198 32.2687 408.72 32.54C408.78 35.14 408.72 37.69 408.56 40.15C410.313 39.8263 411.893 38.8907 413.02 37.51C414.02 35.95 413.58 33.3 411.88 32.41Z" fill="#F6C63B"/>
<path d="M439.46 23.38C442.08 31.48 444.54 45.98 443.64 50.26L438.44 50.79C437.731 48.8271 437.14 46.8235 436.67 44.79L435.98 44.85C434.45 44.96 432.5 45.08 430.18 45.18C430.159 46.8312 430.253 48.4818 430.46 50.12L422.8 51.12C421.16 40.9 423.68 29.44 431.34 23.93L439.46 23.38ZM435.37 39.76C434.69 37.09 433.98 34.24 433.3 31.55C432.99 32.22 432.7 32.9 432.44 33.55C431.739 35.4184 431.194 37.3417 430.81 39.3C432.339 39.3229 433.863 39.4633 435.37 39.72" fill="#F6C63B"/>
<path d="M459.47 43.06C459.737 43.6271 460.16 44.106 460.69 44.44C461.501 44.8357 462.414 44.9759 463.307 44.842C464.199 44.708 465.03 44.3064 465.69 43.69L467.41 46.91C466.611 48.3989 465.361 49.5965 463.84 50.3313C462.318 51.066 460.603 51.3001 458.94 51C456.375 50.5035 454.082 49.0795 452.5 47C452.278 48.2645 451.902 49.4971 451.38 50.67L446.38 50.6C446.008 48.4331 445.821 46.2386 445.82 44.04C445.69 39.04 445.57 32.33 445.58 23.98C455.35 21.78 463.75 24.27 466.08 28.93C467.375 31.4312 467.661 34.334 466.88 37.04C465.42 41.5 459.88 42.94 459.43 43.04L459.47 43.06ZM458.79 32.75C457.58 31.55 454.13 31.67 453.94 31.67C453.89 33.46 453.8 35.28 453.68 37.07C456.53 37.23 458.76 36.46 459.23 35.3C459.458 34.7661 459.501 34.1709 459.35 33.61C459.226 33.2872 459.035 32.9941 458.79 32.75Z" fill="#F6C63B"/>
<path d="M485.63 23.38C488.25 31.48 490.71 45.98 489.81 50.26L484.61 50.79C483.901 48.8271 483.31 46.8235 482.84 44.79L482.15 44.85C480.62 44.96 478.68 45.08 476.36 45.18C476.33 46.8314 476.423 48.4827 476.64 50.12L468.97 51.12C467.33 40.9 469.85 29.44 477.51 23.93L485.63 23.38ZM481.54 39.76C480.86 37.09 480.15 34.24 479.47 31.55C479.16 32.22 478.87 32.9 478.61 33.55C477.914 35.432 477.375 37.3687 477 39.34C478.529 39.3629 480.053 39.5033 481.56 39.76" fill="#F6C63B"/>
<path d="M203.54 64.55L203.64 69.55C201.564 69.9872 199.458 70.2647 197.34 70.38C196.96 74.08 196.82 77.73 196.8 81.18C196.8 83.51 196.94 87.39 196.52 89.18L191.59 90.18C188.92 85.18 188.29 77.39 188.89 70.86C187.043 70.9533 185.06 71.0367 182.94 71.11L182.77 62.79C189.5 62.13 200.46 62.72 203.54 64.58" fill="#F6C63B"/>
<path d="M216.61 90.43C211.69 91.06 207.99 88.84 205.85 84.63C204.15 81.3 203.75 75.07 204.68 71.48C205.228 68.7905 206.687 66.3725 208.812 64.6344C210.936 62.8963 213.595 61.9446 216.34 61.94C216.34 61.94 216.34 62.24 216.34 62.73C221.43 62.47 225.07 66.64 225.95 71.65C227.27 78.77 224.95 89.11 216.56 90.43H216.61ZM218.88 71.43C218.743 70.6629 218.36 69.9611 217.79 69.43C217.464 69.1442 217.078 68.9357 216.66 68.82C216.66 69.35 216.66 69.88 216.74 70.41C215.747 70.5657 214.821 71.0109 214.08 71.69C213.067 72.745 212.494 74.1472 212.48 75.61C212.48 75.89 212.06 80.46 214.61 81.69C215.181 81.9897 215.841 82.0748 216.47 81.93C219.61 81.07 219.36 73.56 218.88 71.44" fill="#F6C63B"/>
<path d="M250.84 76.59C250.61 81.44 247.26 85.66 243.16 87.86C240.723 89.1578 238.027 89.8934 235.268 90.0128C232.51 90.1322 229.76 89.6324 227.22 88.55L228.31 83.71C229.879 83.8241 231.456 83.794 233.02 83.62L229.02 82.74C229.02 82.02 228.86 79.38 228.83 78.65L228.08 63.1L233.53 62.87C242.06 61.49 251.21 67.14 250.85 76.59H250.84ZM241.63 73.3C240.447 72.0215 238.826 71.2359 237.09 71.1C237.01 75.57 236.43 79.85 234.85 83.32C236.532 82.9759 238.127 82.2956 239.54 81.32C242.25 79.48 244.06 76.1 241.63 73.32" fill="#F6C63B"/>
<path d="M264.11 90.43C259.19 91.06 255.49 88.84 253.35 84.63C251.64 81.3 251.25 75.07 252.18 71.48C252.728 68.7905 254.187 66.3725 256.312 64.6344C258.436 62.8963 261.095 61.9446 263.84 61.94C263.84 61.94 263.84 62.24 263.89 62.73C268.98 62.47 272.62 66.64 273.5 71.65C274.82 78.77 272.5 89.11 264.11 90.43ZM266.43 71.43C266.293 70.6629 265.91 69.9611 265.34 69.43C265.012 69.1475 264.626 68.9394 264.21 68.82C264.21 69.35 264.26 69.88 264.29 70.41C263.297 70.5657 262.371 71.0109 261.63 71.69C260.617 72.745 260.044 74.1472 260.03 75.61C260.03 75.89 259.61 80.46 262.16 81.69C262.717 82.0087 263.369 82.1186 264 82C267.14 81.14 266.89 73.63 266.41 71.51" fill="#F6C63B"/>
<path d="M294.48 83.79C293.27 88.54 288.08 90.79 283.65 90.08C278.35 89.43 274.35 84.57 277.54 79.57L282 80.91C281.843 81.2999 281.833 81.7334 281.97 82.1305C282.108 82.5275 282.385 82.8613 282.75 83.07C283.769 83.5265 284.921 83.5836 285.98 83.23C287.79 82.63 286.98 80.93 285.77 80.34C283.69 79.34 281.35 79.02 279.28 77.91C278.262 77.4376 277.355 76.7562 276.618 75.9103C275.88 75.0644 275.329 74.0728 275 73C273.65 67.72 278.13 62.91 283.15 62.23C288.41 61.51 292.73 63.23 296.83 66.04L292.08 73.39C292.14 73.29 291.01 72.48 290.9 72.39C286.55 69.54 283.52 69.58 283.55 70.71C283.55 72.08 287.47 72.42 290.08 73.71C291.92 74.5678 293.38 76.0715 294.184 77.9354C294.988 79.7992 295.079 81.8934 294.44 83.82" fill="#F6C63B"/>
<path d="M324 62.47C326.62 70.58 329.08 85.08 328.18 89.36L322.98 89.89C322.272 87.9268 321.681 85.9232 321.21 83.89L320.52 83.95C318.99 84.06 317.05 84.19 314.73 84.28C314.697 85.9514 314.79 87.6228 315.01 89.28L307.34 90.28C305.7 80.07 308.22 68.61 315.88 63.09L324 62.47ZM319.91 78.85C319.23 76.19 318.52 73.34 317.84 70.65C317.54 71.32 317.24 72 316.98 72.65C316.279 74.515 315.734 76.4349 315.35 78.39C316.879 78.4129 318.403 78.5533 319.91 78.81" fill="#F6C63B"/>
<path d="M353 83.4C352.65 85.73 352 88.61 349.91 89.63C349.25 89.9189 348.533 90.0554 347.813 90.0294C347.093 90.0034 346.388 89.8157 345.75 89.48C342.01 87.48 340.11 79.48 338.54 76.75C338.49 76.66 338.37 76.46 338.26 76.48C337.85 76.55 338.43 87.11 338.36 89.93L330.04 89.59C330.3 82.8 328.16 69.37 333.5 64.46C334.518 63.5499 335.835 63.0467 337.2 63.0467C338.565 63.0467 339.882 63.5499 340.9 64.46C343.9 66.99 346.58 75.2 346.84 76C347.46 71.18 347.57 66.27 347.75 62L353.08 61.49C353.56 66.65 354.14 75.75 353 83.43" fill="#F6C63B"/>
<path d="M364.24 63.09C364.63 71.66 363.64 85.8 361.64 89.72L356.64 89.64C356.266 87.4668 356.082 85.2651 356.09 83.06C355.97 78.06 355.86 71.33 355.88 62.96L364.24 63.09Z" fill="#F6C63B"/>
<path d="M388.07 63.6L393.18 63.16C393.391 63.1404 393.605 63.1685 393.804 63.2422C394.003 63.316 394.183 63.4335 394.331 63.586C394.479 63.7386 394.59 63.9224 394.658 64.1238C394.725 64.3253 394.746 64.5392 394.72 64.75C394.02 71.17 393.19 85.94 392.72 89.48L387.09 90.19C386.418 88.1878 386.008 86.1073 385.87 84C385.67 81.92 385.57 79.78 385.57 77.58C384.57 79.52 383.36 81.77 382.44 83.74L378.22 84.96C377.4 83.61 375.06 78.27 374.42 77.11C374.24 79.59 374.03 81.94 373.76 84.11C373.562 86.0084 373.184 87.8835 372.63 89.71L367.68 90.03C367.137 87.8381 366.818 85.5965 366.73 83.34C366.29 76.4718 366.34 69.581 366.88 62.72L374.88 63.44C377.215 65.7315 379.133 68.4114 380.55 71.36C380.67 71.13 382.41 68.19 383.97 65.96C384.441 65.2866 385.054 64.7245 385.766 64.3134C386.478 63.9022 387.271 63.6519 388.09 63.58" fill="#F6C63B"/>
<path d="M412.77 62.47C415.4 70.58 417.85 85.08 416.95 89.36L411.75 89.89C411.042 87.9268 410.451 85.9232 409.98 83.89L409.29 83.95C407.76 84.06 405.82 84.19 403.5 84.28C403.467 85.9514 403.56 87.6228 403.78 89.28L396.12 90.28C394.47 80.07 396.99 68.61 404.65 63.09L412.77 62.47ZM408.68 78.85C408.01 76.19 407.29 73.34 406.62 70.65C406.31 71.32 406.01 72 405.76 72.65C405.051 74.5133 404.503 76.4335 404.12 78.39C405.649 78.4129 407.173 78.5533 408.68 78.81" fill="#F6C63B"/>
<path d="M427.26 63.09C427.65 71.66 426.66 85.8 424.66 89.72L419.66 89.64C419.286 87.4668 419.102 85.2651 419.11 83.06C418.99 78.06 418.88 71.33 418.9 62.96L427.26 63.09Z" fill="#F6C63B"/>
<path d="M448.36 83.79C447.14 88.54 441.95 90.79 437.52 90.08C432.22 89.43 428.23 84.57 431.41 79.57L435.91 80.91C435.754 81.299 435.743 81.7309 435.879 82.1273C436.015 82.5237 436.289 82.8582 436.65 83.07C437.669 83.5265 438.821 83.5836 439.88 83.23C441.7 82.63 440.88 80.93 439.68 80.34C437.59 79.34 435.25 79.02 433.19 77.91C432.163 77.4278 431.25 76.7326 430.512 75.8705C429.774 75.0085 429.228 73.9993 428.91 72.91C427.57 67.63 432.05 62.82 437.07 62.14C442.32 61.42 446.65 63.14 450.74 65.95L446 73.35C446.07 73.25 444.93 72.44 444.83 72.35C440.47 69.5 437.45 69.54 437.48 70.67C437.48 72.04 441.39 72.38 444.01 73.67C445.85 74.5278 447.31 76.0315 448.114 77.8953C448.918 79.7592 449.009 81.8533 448.37 83.78" fill="#F6C63B"/>
<path d="M12 55.74C13.0343 52.858 13.8532 49.9032 14.45 46.9C31.45 48.64 45.57 31.81 37.58 15.19C33.59 7.06999 24 3.99999 15.34 5.92999C10.22 6.36999 5.10667 6.70332 0 6.92999C1.83 28.39 0.91 38.93 2.86 55.67C5.91 55.74 8.97 55.75 12.02 55.74H12ZM16.26 21.83C17.1219 21.2862 18.0997 20.9531 19.1143 20.8576C20.1289 20.762 21.1517 20.9067 22.1 21.28C25.24 22.74 26.02 27.58 24.21 30.58C22.36 33.39 19.21 34.86 15.96 35.91C16.31 31.35 16.37 26.64 16.26 21.83Z" fill="white"/>
<path d="M61.82 13.58C54.43 13 47.43 19 43.87 25.41C39.74 32.85 40.4 42.34 45.67 48.11C52.67 55.75 64.07 53.53 72.07 45.33L66.87 38.89C64.65 40.96 60.07 42.58 57.56 41.46C56.8224 41.1084 56.2036 40.5488 55.78 39.85C60.62 39.28 65.67 37.52 68.78 34.31C76.21 26.31 71.9 14.37 61.78 13.58H61.82ZM62.07 27.29C61.9 28.24 60.97 28.8 60.27 29.22C58.5287 30.2385 56.6895 31.0794 54.78 31.73C55.5481 29.6253 56.8101 27.7357 58.46 26.22C58.7837 25.8638 59.1946 25.598 59.6523 25.449C60.11 25.2999 60.5986 25.2727 61.07 25.37C61.4241 25.5306 61.7145 25.8046 61.8956 26.1486C62.0767 26.4927 62.1381 26.8872 62.07 27.27" fill="white"/>
<path d="M78.4 23.06C78.55 32.82 80.6 42.33 86.86 47.24C95.61 53.54 107.52 44.98 108.56 33.09C106.42 32.59 104.29 32.09 102.16 31.61C102.06 31.95 100.77 36.14 98.34 36.55C97.6594 36.6354 96.9713 36.4643 96.41 36.07C93.64 34.3 93.28 28.4 93.63 21.07L97 20.55C99.4682 20.2783 101.905 19.7761 104.28 19.05C104.28 16.94 104.28 14.82 104.28 12.7C102.5 11.84 98.81 11.4 94.43 11.32C94.6633 9.19333 94.9567 6.90333 95.31 4.45C90.31 4.05 85.22 3.69 80.17 3.34C79.67 6 79.22 9 78.9 12.22C77.41 12.41 75.98 12.63 74.67 12.86C74.67 16.42 74.67 19.97 74.67 23.53L78.38 23.06" fill="white"/>
<path d="M111 19.66C111.15 29.43 113.2 38.99 119.46 44.2C128.21 50.9 140.12 43.28 141.15 31.5C139.023 30.8333 136.893 30.1667 134.76 29.5C134.66 29.83 133.37 33.93 130.94 34.17C130.242 34.1987 129.556 33.983 129 33.56C126.23 31.62 125.88 25.7 126.23 18.35L129.57 18.09C132.021 17.9674 134.457 17.6328 136.85 17.09C136.85 14.97 136.85 12.85 136.85 10.74C135.08 9.76 131.4 9 127 8.7C127.23 6.58 127.51 4.31 127.88 1.89C122.85 1.17 117.81 0.55 112.76 0C112.29 2.66 111.85 5.66 111.53 8.84C110.04 8.97 108.61 9.14 107.3 9.33C107.3 12.89 107.3 16.44 107.3 20L111.01 19.66" fill="white"/>
<path d="M24 94.56C22.78 95.56 19.34 98.5 17.88 97.56C17.08 97.08 17.19 95.56 17.24 95.1C17.51 91.79 17.91 79.24 18.44 61.86C18.44 61.96 2.30001 60.38 2.30001 60.27C0.825951 72.2135 0.584681 84.2771 1.58001 96.27C1.91001 100.46 2.68001 104.92 5.41001 108.21C15.29 120.29 31.16 106.21 36.55 95.21C33.75 93.4833 30.9433 91.7367 28.13 89.97C26.9595 91.6736 25.571 93.2167 24 94.56Z" fill="white"/>
<path d="M95.23 82.93C93.8 87.26 92.79 87.93 92.41 87.93C92.03 87.93 91.89 87.56 91.81 87.41C90.65 85.2 89.22 68.99 88.81 66.41C83.81 67.18 77.91 68.07 72.9 68.88C73.2363 75.8386 74.4802 82.7236 76.6 89.36C78.43 95.45 81.55 102.5 88.15 103.74C90.773 104.104 93.4443 103.639 95.79 102.41C102.21 98.68 108.14 78.66 108.14 64.25C105.14 64.25 101.14 64.5 98.22 64.59C97.37 69.59 97.05 77.19 95.22 82.87" fill="white"/>
<path d="M129.23 62.73C121.84 61.57 114.84 67.33 111.28 73.67C107.15 81.04 107.81 90.52 113.08 96.42C120.08 104.2 131.48 102.72 139.48 95.42C137.74 93.08 136.007 90.7467 134.28 88.42C132.06 90.28 127.48 91.54 124.97 90.26C124.232 89.8624 123.617 89.2712 123.19 88.55C128.02 88.26 133.08 86.93 136.24 84.04C143.67 76.88 139.36 64.32 129.24 62.68L129.23 62.73ZM129.53 76.42C129.36 77.36 128.43 77.85 127.73 78.21C125.977 79.1131 124.138 79.8368 122.24 80.37C122.997 78.3253 124.264 76.5079 125.92 75.09C126.255 74.7551 126.675 74.5169 127.134 74.4007C127.594 74.2846 128.076 74.2947 128.53 74.43C128.897 74.6059 129.197 74.8955 129.387 75.2559C129.576 75.6162 129.644 76.028 129.58 76.43" fill="white"/>
<path d="M64.13 70.59L61.13 73.32L61.46 67.91C57.0891 68.1647 52.8445 69.4715 49.0872 71.7192C45.3299 73.967 42.1713 77.0891 39.88 80.82C35.51 88.27 35.55 97.82 40.88 103.75C48.39 112.2 62.38 110.63 69 99.86C75.63 89.46 72.18 77.21 64.12 70.59H64.13ZM56.57 83.77C57.31 81.61 59.14 80.29 60.66 80.77C62.18 81.25 62.82 83.46 62.08 85.62C61.34 87.78 59.5 89.09 57.98 88.62C56.46 88.15 55.83 85.93 56.57 83.78V83.77ZM48.77 82.78C48.97 80.51 50.43 78.78 52.03 78.92C53.63 79.06 54.77 81.01 54.57 83.28C54.37 85.55 52.92 87.28 51.31 87.14C49.7 87 48.57 85.05 48.77 82.78ZM43.35 88.7C42.26 87.13 42.26 85.24 43.35 84.47C44.44 83.7 46.22 84.35 47.35 85.91C48.48 87.47 48.45 89.36 47.35 90.13C46.25 90.9 44.48 90.26 43.35 88.7ZM59 99.54C57 99.85 55.69 98.28 54.77 97.71C53.85 97.14 53.4 96.62 52.35 97.5C51.3 98.38 48.35 98.61 48.35 98.61C48.35 98.61 44.97 98.32 47.8 93.69C50.63 89.06 54.03 89.37 54.03 89.37C56.44 89.58 57.77 91.15 59.45 94.22C61.13 97.29 60.96 99.22 58.99 99.54H59ZM64.43 92.82C62.87 93.91 60.97 93.92 60.21 92.82C59.45 91.72 60.08 89.95 61.64 88.82C63.2 87.69 65.1 87.72 65.86 88.82C66.62 89.92 65.99 91.69 64.43 92.82Z" fill="white"/>
</g>
<defs>
<clipPath id="clip0_2_286">
<rect width="490" height="112.9" fill="white"/>
</clipPath>
</defs>
</svg>
