<svg width="119" height="120" viewBox="0 0 119 120" fill="none" xmlns="http://www.w3.org/2000/svg">
<g clip-path="url(#clip0_2_492)">
<path d="M61.27 16.64C61.27 16.64 32.57 -15.79 8.72999 9.88999C-15.11 35.57 16.56 82.51 24.8 91.75C33.04 100.99 50.81 119.56 56 120C61.19 120.44 117.24 82.48 118.3 43.07C119.36 3.65998 87.22 -8.00001 61.27 16.64Z" fill="#F6C63B"/>
<path d="M22.2 59.4C22.8739 57.5432 23.4054 55.6376 23.79 53.7C34.79 54.82 43.8699 43.96 38.7099 33.24C36.1299 28 30 26 24.35 27.26C21.05 27.54 17.75 27.76 14.45 27.9C15.63 41.76 15.04 48.55 16.29 59.36C18.26 59.4 20.23 59.41 22.2 59.4ZM24.94 37.52C25.4965 37.1691 26.128 36.9545 26.7831 36.8937C27.4381 36.8329 28.0983 36.9276 28.71 37.17C30.7099 38.11 31.24 41.23 30.07 43.17C28.9 45.11 26.86 45.93 24.75 46.61C25 43.66 25 40.62 24.94 37.52Z" fill="#556F4D"/>
<path d="M54.3399 32.19C49.5699 31.82 45.0499 35.69 42.7599 39.83C40.0899 44.63 40.5199 50.75 43.9199 54.48C48.4099 59.41 55.7899 57.97 60.9199 52.69C59.7999 51.3 58.6899 49.91 57.5699 48.53C56.1399 49.86 53.1799 50.91 51.5699 50.18C51.1009 49.9643 50.7048 49.6168 50.4299 49.18C53.5399 48.81 56.7999 47.68 58.8399 45.61C63.6599 40.43 60.8799 32.71 54.3399 32.19ZM54.5299 41C54.4199 41.62 53.8199 42 53.3699 42.25C52.2483 42.9093 51.0621 43.4521 49.8299 43.87C50.3305 42.5146 51.1463 41.2978 52.2099 40.32C52.4166 40.0883 52.6808 39.9153 52.9759 39.8187C53.2709 39.7221 53.5863 39.7053 53.8899 39.77C54.1192 39.8733 54.307 40.0509 54.4231 40.274C54.5392 40.4971 54.5768 40.7529 54.5299 41Z" fill="#556F4D"/>
<path d="M64.9999 38.3099C65.0999 44.6099 66.4199 50.7499 70.4599 53.9199C76.1099 57.9799 83.7899 52.4599 84.4599 44.7899C83.0799 44.4599 81.7099 44.1399 80.3299 43.7899C80.2699 44.0099 79.4299 46.7199 77.8699 46.9799C77.4292 47.0343 76.9841 46.9239 76.6199 46.6699C74.8299 45.5199 74.6199 41.6699 74.8299 36.9599L76.9999 36.6999C78.5932 36.5074 80.1661 36.1727 81.6999 35.6999C81.6999 34.3299 81.6999 32.9599 81.6999 31.5999C79.6532 30.9271 77.5027 30.6257 75.3499 30.7099C75.4999 29.3299 75.6799 27.8499 75.9099 26.2799C72.6599 26.0199 69.3999 25.7799 66.1499 25.5599C65.8499 27.2799 65.5599 29.2299 65.3499 31.2899C64.3499 31.4099 63.4699 31.5499 62.6199 31.6999V38.5899L64.9999 38.3099Z" fill="#556F4D"/>
<path d="M86.09 36.1199C86.19 42.4199 87.51 48.5999 91.56 51.9599C97.2 56.2799 104.89 51.3599 105.56 43.7599C104.19 43.3199 102.81 42.8899 101.44 42.4699C101.37 42.6899 100.54 45.3399 98.97 45.4699C98.5202 45.4922 98.0773 45.3539 97.72 45.0799C95.94 43.8199 95.72 40.0099 95.93 35.2599L98.09 35.0899C99.6721 35.0189 101.245 34.808 102.79 34.4599V30.3699C100.766 29.5527 98.6119 29.1056 96.43 29.0499C96.58 27.6799 96.77 26.2099 97 24.6499C93.74 24.1899 90.49 23.7899 87.23 23.4299C86.93 25.1499 86.65 27.0899 86.44 29.1399C85.44 29.2199 84.55 29.3299 83.71 29.4599V36.3399L86.09 36.1199Z" fill="#556F4D"/>
<path d="M29.93 84.45C29.14 85.12 26.93 87 25.98 86.45C25.46 86.14 25.54 85.19 25.56 84.86C25.74 82.73 26 74.63 26.34 63.41C26.34 63.48 15.93 62.41 15.93 62.41C14.9722 70.1164 14.8147 77.9012 15.46 85.64C15.68 88.34 16.17 91.22 17.93 93.34C24.31 101.14 34.55 92.08 38.03 84.94C36.2167 83.8267 34.4067 82.7 32.6 81.56C31.8377 82.6339 30.9403 83.6052 29.93 84.45Z" fill="#556F4D"/>
<path d="M75.9 76.9999C74.98 79.7899 74.33 80.2599 74.08 80.2399C73.83 80.2199 73.74 79.9999 73.69 79.8999C73 78.4199 72 67.9999 71.79 66.3299C68.56 66.8199 64.79 67.3999 61.52 67.9199C61.735 72.4089 62.5385 76.8502 63.91 81.1299C65.09 85.0699 67.1 89.6199 71.36 90.4199C73.056 90.6507 74.7818 90.3503 76.3 89.5599C80.44 87.1499 84.3 74.2299 84.3 64.9399C82.39 64.9399 79.81 65.0899 77.9 65.1499C77.31 68.3899 77.1 73.2799 75.9 76.9999Z" fill="#556F4D"/>
<path d="M97.84 63.9099C93.07 63.1599 88.55 66.9099 86.26 70.9699C83.59 75.7299 84 81.8399 87.42 85.6499C91.91 90.6499 99.29 89.7199 104.42 85.0199C103.3 83.5199 102.19 82.0199 101.07 80.5299C99.64 81.7199 96.68 82.5299 95.07 81.7099C94.5933 81.4507 94.1959 81.0671 93.92 80.5999C97.04 80.4199 100.3 79.5999 102.34 77.6999C107.16 73.0799 104.38 64.9999 97.84 63.9099ZM98 72.7799C97.89 73.3899 97.29 73.6999 96.84 73.9399C95.7057 74.5121 94.5206 74.9775 93.3 75.3299C93.7895 74.0089 94.6088 72.835 95.68 71.9199C95.8944 71.7022 96.1642 71.5472 96.4602 71.4714C96.7562 71.3956 97.0673 71.402 97.36 71.4899C97.5887 71.6104 97.7736 71.7999 97.8885 72.0315C98.0034 72.263 98.0424 72.5249 98 72.7799Z" fill="#556F4D"/>
<path d="M55.8299 69L53.9199 70.76L54.1299 67.27C51.2962 67.4209 48.5416 68.2578 46.1029 69.7089C43.6642 71.1599 41.6144 73.1816 40.1299 75.6C37.3099 80.41 37.3399 86.54 40.7899 90.39C45.6299 95.85 54.6599 94.83 58.9299 87.89C60.8285 84.9117 61.5619 81.3379 60.99 77.8526C60.418 74.3673 58.5808 71.2153 55.8299 69ZM50.9999 77.49C51.4799 76.1 52.6599 75.24 53.6399 75.58C54.6199 75.92 55.0299 77.32 54.5599 78.71C54.0899 80.1 52.8999 80.95 51.9099 80.61C50.9199 80.27 50.4699 78.88 50.9999 77.49ZM45.9999 76.88C46.1299 75.41 47.0699 74.3 48.0999 74.39C49.1299 74.48 49.8699 75.74 49.7399 77.2C49.6099 78.66 48.6699 79.78 47.6399 79.69C46.6099 79.6 45.7899 78.34 45.9199 76.88H45.9999ZM42.5099 80.69C41.7999 79.69 41.7999 78.47 42.5099 77.97C43.2199 77.47 44.3699 77.89 45.0699 78.9C45.7699 79.91 45.7799 81.13 45.0699 81.62C44.3599 82.11 43.1299 81.7 42.4299 80.69H42.5099ZM52.5999 87.69C51.3299 87.89 50.4799 86.87 49.8799 86.51C49.2799 86.15 48.9999 85.8 48.3199 86.37C47.5218 86.7931 46.6418 87.0387 45.7399 87.09C45.7399 87.09 43.5599 86.9 45.3899 83.91C47.2199 80.92 49.3899 81.12 49.3899 81.12C50.9499 81.26 51.8099 82.27 52.8899 84.25C53.9699 86.23 53.7999 87.46 52.5199 87.67L52.5999 87.69ZM55.9999 83.33C54.9999 84.04 53.7699 84.04 53.2699 83.33C52.7699 82.62 53.1899 81.48 54.1999 80.77C55.2099 80.06 56.4299 80.06 56.9199 80.77C57.4099 81.48 56.9999 82.62 55.9999 83.33Z" fill="#556F4D"/>
</g>
<defs>
<clipPath id="clip0_2_492">
<rect width="118.36" height="120" fill="white"/>
</clipPath>
</defs>
</svg>
