<svg width="197" height="200" viewBox="0 0 197 200" fill="none" xmlns="http://www.w3.org/2000/svg">
<g clip-path="url(#clip0_2_7)">
<path d="M101.976 27.7375C101.976 27.7375 54.2024 -26.3125 14.5927 16.4875C-25.0171 59.2875 27.5629 137.5 41.2696 152.912C54.9764 168.325 84.5619 199.275 93.2753 200C101.989 200.725 195.202 137.5 196.962 71.7875C198.722 6.07496 145.169 -13.3125 101.976 27.7375Z" fill="#F6C63B"/>
<path d="M36.9633 99C38.0693 95.8969 38.9496 92.7178 39.5972 89.4874C57.8979 91.375 73.0152 73.2375 64.4391 55.4C60.1324 46.65 49.8711 43.325 40.521 45.4C35.0283 45.875 29.5357 46.2499 24.043 46.4874C26.0153 69.575 25.0292 80.8875 27.1139 98.9125C30.397 99 33.7051 99.0125 36.9633 99ZM41.5072 62.5C42.4297 61.9213 43.4747 61.5668 44.5584 61.4648C45.6422 61.3628 46.7348 61.5161 47.7489 61.9125C51.1194 63.475 51.9558 68.6875 50.0084 71.9125C48.061 75.1375 44.7029 76.55 41.1951 77.675C41.5527 72.625 41.6569 67.5603 41.5072 62.5Z" fill="#556F4D"/>
<path d="M90.4545 53.65C82.5151 53.025 74.9877 59.4875 71.1553 66.3875C66.7237 74.3875 67.4102 84.5875 73.0902 90.8C80.5802 99.0125 92.8514 96.625 101.44 87.8125L95.8723 80.875C93.488 83.1125 88.5696 84.85 85.8856 83.6375C85.0939 83.2623 84.4298 82.6624 83.9757 81.9125C89.1688 81.3 94.5865 79.4125 97.982 75.9625C105.959 67.375 101.328 54.5125 90.4545 53.65ZM90.7666 68.4C90.5794 69.4375 89.5807 70.0375 88.8317 70.475C86.9653 71.5748 84.9908 72.4795 82.9396 73.175C83.764 70.9103 85.1214 68.8779 86.8968 67.25C87.2437 66.8679 87.684 66.5829 88.1743 66.4229C88.6645 66.263 89.188 66.2335 89.6931 66.3375C90.0763 66.5118 90.3902 66.8097 90.5848 67.1835C90.7794 67.5573 90.8434 67.9855 90.7666 68.4Z" fill="#556F4D"/>
<path d="M108.256 63.8625C108.418 74.35 110.615 84.5875 117.344 89.8625C126.744 96.6375 139.539 87.4375 140.65 74.65C138.353 74.1 136.069 73.575 133.772 73.05C133.672 73.4125 132.274 77.925 129.677 78.3625C128.943 78.4541 128.201 78.2717 127.593 77.85C124.622 75.9375 124.235 69.6 124.609 61.6L128.204 61.1C130.867 60.8242 133.5 60.3054 136.069 59.55C136.069 57.275 136.069 54.9875 136.069 52.7125C134.159 51.7875 130.202 51.3125 125.495 51.225C125.728 48.9416 126.04 46.4833 126.432 43.85C121.014 43.4125 115.596 43.025 110.203 42.6C109.704 45.475 109.23 48.725 108.88 52.15C107.282 52.35 105.747 52.5875 104.336 52.8375V64.3125L108.256 63.8625Z" fill="#556F4D"/>
<path d="M143.297 60.1999C143.459 70.6999 145.656 80.9874 152.385 86.5999C161.784 93.7999 174.58 85.5999 175.691 72.9249C173.407 72.1999 171.11 71.4874 168.825 70.7874C168.713 71.1499 167.327 75.5624 164.718 75.7874C163.968 75.8247 163.229 75.5944 162.633 75.1374C159.662 73.0499 159.275 66.6874 159.662 58.7749L163.245 58.4999C165.861 58.3907 168.463 58.0562 171.022 57.4999V50.6249C169.1 49.5499 165.143 48.7874 160.436 48.4124C160.686 46.1374 160.986 43.6874 161.385 41.0874C155.967 40.3124 150.549 39.6499 145.157 39.0499C144.645 41.9124 144.17 45.1499 143.821 48.5624C142.223 48.6999 140.688 48.8874 139.277 49.0874V60.5624L143.297 60.1999Z" fill="#556F4D"/>
<path d="M49.8212 140.75C48.5729 141.875 44.8279 145 43.2425 144.038C42.3811 143.525 42.506 141.925 42.5559 141.388C42.843 137.825 43.2799 124.325 43.8042 105.638C43.8042 105.75 26.4773 104.05 26.4773 103.938C24.8803 116.793 24.621 129.779 25.7033 142.688C26.0529 147.2 26.8893 152 29.8104 155.538C40.4212 168.525 57.461 153.425 63.2658 141.538C60.2448 139.675 57.2363 137.788 54.2154 135.9C52.9586 137.694 51.4824 139.323 49.8212 140.75Z" fill="#556F4D"/>
<path d="M126.332 128.25C124.796 132.9 123.71 133.675 123.298 133.65C122.886 133.625 122.737 133.237 122.662 133.087C121.413 130.7 119.878 113.275 119.491 110.587C114.111 111.412 107.781 112.375 102.401 113.237C102.759 120.721 104.094 128.126 106.371 135.262C108.343 141.812 111.689 149.4 118.779 150.725C121.599 151.121 124.471 150.622 126.993 149.3C133.884 145.287 140.251 123.75 140.251 108.262C137.067 108.262 132.761 108.525 129.602 108.625C128.679 113.975 128.342 122.137 126.332 128.25Z" fill="#556F4D"/>
<path d="M162.858 106.525C154.919 105.275 147.391 111.525 143.571 118.287C139.14 126.212 139.826 136.412 145.506 142.762C152.996 151.125 165.267 149.525 173.856 141.712C171.996 139.212 170.111 136.712 168.276 134.212C165.892 136.2 160.961 137.562 158.289 136.187C157.497 135.755 156.837 135.116 156.379 134.337C161.572 134.025 166.99 132.6 170.386 129.487C178.362 121.787 173.731 108.287 162.858 106.525ZM163.17 121.25C162.983 122.262 161.922 122.787 161.235 123.175C159.347 124.14 157.37 124.919 155.331 125.5C156.141 123.299 157.504 121.345 159.288 119.825C159.644 119.462 160.094 119.203 160.587 119.078C161.08 118.952 161.597 118.964 162.084 119.112C162.466 119.309 162.777 119.622 162.972 120.006C163.167 120.389 163.236 120.825 163.17 121.25Z" fill="#556F4D"/>
<path d="M92.9262 115L89.7429 117.937C89.8553 116 89.9801 114.062 90.0925 112.112C85.39 112.384 80.8228 113.79 76.78 116.21C72.7371 118.63 69.3384 121.993 66.8734 126.012C62.1921 134.012 62.2296 144.25 67.9719 150.662C76.0362 159.75 91.0537 158.062 98.1692 146.487C101.319 141.513 102.526 135.55 101.559 129.74C100.591 123.93 97.5177 118.682 92.9262 115ZM84.812 129.175C85.5985 126.85 87.5708 125.425 89.2061 125.987C90.8415 126.55 91.5156 128.887 90.7166 131.2C89.9177 133.512 87.9578 134.95 86.3225 134.387C84.6872 133.825 84.0131 131.462 84.812 129.15V129.175ZM76.4357 128.15C76.6479 125.65 78.2083 123.85 79.931 124C81.6537 124.15 82.8771 126.25 82.6649 128.7C82.4527 131.15 80.8797 132.987 79.1695 132.837C77.4593 132.687 76.2234 130.562 76.4357 128.125V128.15ZM70.6184 134.512C69.3701 132.837 69.3701 130.762 70.6184 129.975C71.8668 129.187 73.6519 129.812 74.9002 131.5C76.1485 133.187 76.0736 135.25 74.9002 136.037C73.7268 136.825 71.7919 136.175 70.6184 134.487V134.512ZM87.3836 146.112C85.2614 146.45 83.8383 144.75 82.8521 144.137C81.8659 143.525 81.3791 142.962 80.2556 143.912C79.1321 144.862 75.9613 145.162 75.9613 145.162C75.9613 145.162 72.3286 144.85 75.3746 139.875C78.4205 134.9 82.0657 135.212 82.0657 135.212C84.6622 135.45 86.0728 137.137 87.8829 140.437C89.693 143.737 89.5432 145.775 87.3836 146.112ZM93.2383 138.875C91.553 140.125 89.4933 140.125 88.6943 138.875C87.8954 137.625 88.5695 135.787 90.2423 134.6C91.915 133.412 93.9873 133.425 94.7737 134.6C95.5602 135.775 94.9485 137.7 93.2757 138.875H93.2383Z" fill="#556F4D"/>
</g>
<defs>
<clipPath id="clip0_2_7">
<rect width="197" height="200" fill="white"/>
</clipPath>
</defs>
</svg>
