<svg width="98" height="86" viewBox="0 0 98 86" fill="none" xmlns="http://www.w3.org/2000/svg">
<path d="M35.44 85.68C35.44 85.68 46.83 83.53 50.56 79.68C54.29 75.83 56.24 77.68 60.09 79.47C63.94 81.26 69.78 86.89 77.36 84.82C84.94 82.75 84.78 75.13 76.92 63.82C69.06 52.51 63.21 47 53.68 47.16C53.68 47.16 40.34 47.44 31.22 66.7C22.1 85.96 35.44 85.7 35.44 85.7" fill="#F6C63B"/>
<path d="M25.82 39.69C25.3214 36.0072 23.7174 32.5622 21.22 29.81C15.73 23.56 7.55998 21.73 2.99998 25.74C-1.56002 29.75 -0.830019 38.09 4.65998 44.34C7.06526 47.1746 10.2728 49.2142 13.86 50.19C14.8416 50.4326 15.8488 50.5568 16.86 50.56C19.0553 50.5992 21.1892 49.8346 22.86 48.41C25.15 46.41 26.19 43.3 25.8 39.69H25.82ZM14.57 47.27C11.5776 46.4486 8.90591 44.7361 6.90998 42.36C2.51998 37.35 1.64998 30.91 4.99998 28C6.14596 27.0394 7.60533 26.5339 9.09998 26.58C12.27 26.58 16.1 28.45 18.99 31.8C21.0711 34.0824 22.4132 36.9409 22.84 40C23.12 42.62 22.44 44.8 20.9 46.14C19.36 47.48 17.12 47.88 14.57 47.26" fill="#546E4D"/>
<path d="M36 35.4H36.21C43.34 35.24 48.97 27.18 48.76 17.4C48.7547 13.0291 47.4112 8.76457 44.91 5.18C42.39 1.77 39.06 0 35.48 0C28.35 0.15 22.72 8.22 22.93 18C22.9482 22.3828 24.3016 26.656 26.81 30.25C29.29 33.59 32.55 35.43 36.03 35.43L36 35.4ZM35.55 3C38.12 3 40.55 4.35 42.55 7C44.6927 10.094 45.8437 13.7665 45.85 17.53C46.02 25.63 41.7 32.32 36.22 32.44C33.68 32.53 31.22 31.08 29.28 28.44C27.1276 25.3545 25.9756 21.682 25.98 17.92C25.75 9.81 30.07 3.12 35.55 3Z" fill="#546E4D"/>
<path d="M62.53 38.13C63.2225 38.2855 63.9302 38.3626 64.64 38.36C70.93 38.36 77.11 32.27 79.05 23.71C80.0893 19.4563 79.8032 14.9865 78.23 10.9C76.61 6.99999 73.81 4.37999 70.34 3.59999C66.87 2.81999 63.22 3.93999 60.07 6.78999C56.8923 9.80341 54.7086 13.7138 53.81 18C51.66 27.52 55.57 36.54 62.53 38.12V38.13ZM56.74 18.67C57.4906 14.9769 59.3541 11.6023 62.08 8.99999C63.7143 7.38338 65.8931 6.43484 68.19 6.33999C68.691 6.33826 69.1907 6.39192 69.68 6.49999C72.17 7.05999 74.22 9.02999 75.46 12.02C76.7979 15.5333 77.0283 19.3719 76.12 23.02C74.34 31 68.53 36.41 63.19 35.2C57.85 33.99 55 26.57 56.74 18.67Z" fill="#546E4D"/>
<path d="M94.94 33.25C92.94 30.96 89.83 29.92 86.22 30.31C82.5384 30.8128 79.0947 32.4162 76.34 34.91C70.09 40.4 68.27 48.57 72.27 53.14C73.1941 54.1343 74.3222 54.9172 75.5769 55.435C76.8317 55.9528 78.1836 56.1933 79.54 56.14C83.7515 55.9874 87.7699 54.3347 90.87 51.48C97.12 46 99 37.81 94.94 33.25ZM88.94 49.25C83.94 53.64 77.49 54.51 74.57 51.19C71.65 47.87 73.35 41.59 78.36 37.19C80.6489 35.0957 83.518 33.7431 86.59 33.31C86.9654 33.2708 87.3426 33.2508 87.72 33.25C88.6483 33.2034 89.5757 33.358 90.4387 33.7032C91.3017 34.0484 92.0799 34.576 92.72 35.25C95.63 38.57 93.93 44.84 88.93 49.25" fill="#546E4D"/>
<path d="M47.77 39.78C47.19 39.78 33.4 40.31 23.98 60.18C20.31 67.93 19.67 73.75 22.08 77.47C24.49 81.19 28.93 81.3 29.53 81.3H29.59H29.84C30.32 81.21 41.75 79.01 45.76 74.82C48.23 72.24 49.21 72.74 52.1 74.21L53.57 74.94C54.5127 75.4177 55.4275 75.9485 56.31 76.53C60.14 78.9 65.37 82.16 71.88 80.38C75.82 79.28 77.4 77 78 75.2C79.56 70.9 77.62 64.8 72.23 57.08C64.23 45.69 58 39.53 47.73 39.78H47.77ZM75.18 74.18C74.6 75.78 73.25 76.86 71.05 77.45C65.8 78.89 61.4 76.15 57.86 73.95C56.8927 73.3123 55.8912 72.7281 54.86 72.2L53.47 71.5C50.47 69.98 47.62 68.5 43.61 72.72C40.87 75.57 32.61 77.72 29.44 78.29C28.4972 78.2746 27.5706 78.043 26.7315 77.6131C25.8923 77.1831 25.1631 76.5662 24.6 75.81C22.83 73.06 23.6 68.1 26.71 61.46C35.27 43.37 47.34 42.79 47.84 42.78H48.3C57.02 42.78 62.42 48.21 69.82 58.78C74.48 65.46 76.4 70.92 75.23 74.16" fill="#546E4D"/>
</svg>
