<svg width="71" height="72" viewBox="0 0 71 72" fill="none" xmlns="http://www.w3.org/2000/svg">
<g clip-path="url(#clip0_2_82)">
<path d="M58.7001 16.24C54.5043 12.0449 49.1588 9.18821 43.3395 8.03107C37.5202 6.87393 31.4885 7.46832 26.007 9.7391C20.5255 12.0099 15.8404 15.8551 12.5442 20.7884C9.24799 25.7218 7.48865 31.5218 7.48865 37.455C7.48865 43.3882 9.24799 49.1882 12.5442 54.1216C15.8404 59.0549 20.5255 62.9001 26.007 65.1709C31.4885 67.4417 37.5202 68.0361 43.3395 66.8789C49.1588 65.7218 54.5043 62.8651 58.7001 58.67C61.4864 55.8842 63.6966 52.5768 65.2045 48.9367C66.7125 45.2966 67.4886 41.3951 67.4886 37.455C67.4886 33.5149 66.7125 29.6134 65.2045 25.9733C63.6966 22.3332 61.4864 19.0258 58.7001 16.24ZM51.6301 51.6C48.8327 54.3962 45.269 56.3002 41.3896 57.0713C37.5102 57.8423 33.4893 57.4458 29.8352 55.9318C26.1812 54.4178 23.0581 51.8544 20.8608 48.5656C18.6636 45.2768 17.4908 41.4103 17.4908 37.455C17.4908 33.4997 18.6636 29.6332 20.8608 26.3444C23.0581 23.0556 26.1812 20.4922 29.8352 18.9782C33.4893 17.4642 37.5102 17.0677 41.3896 17.8387C45.269 18.6097 48.8327 20.5138 51.6301 23.31C53.4881 25.1673 54.962 27.3724 55.9676 29.7995C56.9732 32.2265 57.4908 34.8279 57.4908 37.455C57.4908 40.0821 56.9732 42.6835 55.9676 45.1105C54.962 47.5376 53.4881 49.7427 51.6301 51.6Z" fill="#F6C63B"/>
<path d="M70.3801 68.93L54.4501 53C60.0846 47.002 63.15 39.0383 62.9912 30.8103C62.8323 22.5824 59.4619 14.7429 53.6 8.96687C47.7381 3.19086 39.8497 -0.0635428 31.6203 -0.100947C23.3909 -0.13835 15.4733 3.04421 9.55911 8.7667C3.64496 14.4892 0.203378 22.2978 -0.0302505 30.5239C-0.263879 38.75 2.72897 46.7413 8.30881 52.7903C13.8886 58.8392 21.6129 62.466 29.8312 62.8957C38.0494 63.3254 46.1098 60.524 52.2901 55.09L68.2901 71.09C68.4293 71.2299 68.5946 71.3409 68.7768 71.4169C68.9589 71.4928 69.1542 71.5321 69.3515 71.5326C69.5488 71.5331 69.7443 71.4947 69.9268 71.4196C70.1093 71.3445 70.2752 71.2342 70.4151 71.095C70.5549 70.9558 70.666 70.7904 70.7419 70.6083C70.8179 70.4262 70.8572 70.2309 70.8577 70.0335C70.8581 69.8362 70.8197 69.6407 70.7446 69.4582C70.6695 69.2758 70.5592 69.1099 70.4201 68.97L70.3801 68.93ZM11.4201 51.65C6.75039 46.9818 3.84516 40.8379 3.20006 34.2666C2.55495 27.6953 4.20994 21.1038 7.88265 15.6166C11.5554 10.1294 17.0182 6.08652 23.3392 4.1778C29.6602 2.26907 36.4477 2.61274 42.5435 5.15015C48.6394 7.68756 53.666 12.2615 56.7657 18.0916C59.8654 23.9217 60.8461 30.6467 59.5406 37.1192C58.235 43.5918 54.7241 49.4108 49.6068 53.5835C44.4895 57.7562 38.0829 60.024 31.4801 60C23.9242 59.9969 16.6779 56.9977 11.3301 51.66" fill="#546E4D"/>
</g>
<defs>
<clipPath id="clip0_2_82">
<rect width="70.82" height="71.49" fill="white"/>
</clipPath>
</defs>
</svg>
