<svg width="28" height="28" viewBox="0 0 28 28" fill="none" xmlns="http://www.w3.org/2000/svg">
<g clip-path="url(#clip0_2_185)">
<path d="M20 0H8C5.87827 0 3.84344 0.842855 2.34315 2.34315C0.842855 3.84344 0 5.87827 0 8L0 20C0 22.1217 0.842855 24.1566 2.34315 25.6569C3.84344 27.1571 5.87827 28 8 28H20C22.1217 28 24.1566 27.1571 25.6569 25.6569C27.1571 24.1566 28 22.1217 28 20V8C28 5.87827 27.1571 3.84344 25.6569 2.34315C24.1566 0.842855 22.1217 0 20 0V0ZM11.29 18.22V9.78L18.71 14L11.29 18.22Z" fill="white"/>
</g>
<defs>
<clipPath id="clip0_2_185">
<rect width="28" height="28" fill="white"/>
</clipPath>
</defs>
</svg>
